<svg width="16" height="16" viewBox="0 0 16 16" fill="none" xmlns="http://www.w3.org/2000/svg">
<g clip-path="url(#clip0_2139_1628)">
<rect width="16" height="16" rx="8" fill="#E6514A"/>
<path d="M12.0217 10.4501L10.7212 9.14653C10.4622 8.88795 10.0332 8.89581 9.76512 9.16457L9.10993 9.82111C9.06853 9.79824 9.02569 9.77436 8.98064 9.74902C8.56689 9.51924 8.0006 9.20431 7.4047 8.60663C6.80704 8.00768 6.49253 7.43923 6.26257 7.02428C6.23831 6.98032 6.21506 6.93793 6.1921 6.89768L6.63183 6.4576L6.84802 6.24066C7.11649 5.97151 7.12389 5.54169 6.86546 5.28236L5.56497 3.97862C5.30654 3.71965 4.87738 3.72751 4.6089 3.99666L4.24238 4.36612L4.2524 4.37609C4.12949 4.53327 4.0268 4.71454 3.95037 4.91003C3.87992 5.09611 3.83606 5.27368 3.816 5.45161C3.64428 6.87845 4.29483 8.18248 6.06034 9.95202C8.50082 12.3979 10.4675 12.2131 10.5524 12.2041C10.7372 12.1819 10.9142 12.1377 11.0942 12.0676C11.2876 11.9919 11.4683 11.8891 11.625 11.7662L11.633 11.7734L12.0044 11.4089C12.2723 11.1398 12.28 10.7099 12.0217 10.4501Z" fill="white"/>
</g>
<defs>
<clipPath id="clip0_2139_1628">
<rect width="16" height="16" fill="white"/>
</clipPath>
</defs>
</svg>
